<svg version="1" xmlns="http://www.w3.org/2000/svg" width="19.875" height="21.916" viewBox="0 0 19.875 21.916"><path d="M17.04 2h-2.08V0h-2v2H6.916V0h-2v2H2.835A2.842 2.842 0 0 0 0 4.835V19.08a2.842 2.842 0 0 0 2.835 2.836H17.04a2.842 2.842 0 0 0 2.835-2.835V4.836A2.842 2.842 0 0 0 17.04 2zm.835 17.08a.846.846 0 0 1-.835.836H2.835A.846.846 0 0 1 2 19.08V4.836C2 4.382 2.383 4 2.835 4H17.04c.452 0 .835.382.835.835V19.08z"/><path d="M4.917 6.958h2v2h-2zM12.96 6.958h2v2h-2zM8.938 6.958h2v2h-2zM4.917 10.958h2v2h-2zM12.96 10.958h2v2h-2zM8.938 10.958h2v2h-2zM4.917 14.942h2v2h-2zM12.96 14.942h2v2h-2zM8.938 14.942h2v2h-2z"/></svg>