<svg xmlns="http://www.w3.org/2000/svg" width="280" height="48" viewBox="0 0 280 48"><g fill="#FFF"><path d="M28.115 12.874c-2.17-1.81-4.942-3.013-7.835-3.013-2.17 0-5.062 1.266-5.062 3.798 0 2.65 3.194 3.676 5.243 4.338l3.015.905c6.328 1.87 11.21 5.063 11.21 12.416 0 4.52-1.085 9.16-4.702 12.235-3.556 3.013-8.317 4.278-12.896 4.278-5.726 0-11.332-1.93-15.972-5.184l5.063-9.52c2.953 2.59 6.448 4.698 10.486 4.698 2.772 0 5.726-1.386 5.726-4.58 0-3.315-4.64-4.46-7.172-5.183-7.41-2.11-12.294-4.037-12.294-12.837 0-9.22 6.568-15.247 15.67-15.247 4.58 0 10.184 1.447 14.222 3.736l-4.7 9.162zM56.875 11.186v7.594h13.32v10.005h-13.32v7.834h14.042v10.005H45.062V1.18h25.855v10.006H56.875zM79.695 1.18H96.45c12.656 0 23.082 9.946 23.082 22.723 0 12.775-10.487 22.72-23.083 22.72H79.694V1.182zm11.813 35.44h2.652c7.05 0 13.078-3.858 13.078-12.717 0-8.136-5.363-12.716-12.958-12.716h-2.772V36.62zM175.3 23.06c0 14.705-10.547 25.07-25.133 25.07-14.585 0-25.132-10.365-25.132-25.07 0-13.74 12.053-23.384 25.132-23.384 13.078 0 25.133 9.643 25.133 23.383zm-37.97.06c0 7.834 5.787 13.56 12.837 13.56s12.837-5.726 12.837-13.56c0-6.27-5.784-11.994-12.837-11.994S137.33 16.853 137.33 23.12zM181.593 1.18h11.813l21.637 27.786h.12V1.18h11.813v45.445h-11.812L193.527 18.78h-.12v27.845h-11.814V1.18zM248.447 38.728l-3.134 7.897H232.78L250.257 1.18h12.897l17.115 45.445h-12.6l-2.95-7.897h-16.273zm8.256-23.504h-.118l-4.88 14.464h9.82l-4.822-14.464z"/></g></svg>