<?xml version="1.0" encoding="utf-8"?>
<!-- Generator: Adobe Illustrator 15.0.0, SVG Export Plug-In . SVG Version: 6.00 Build 0)  -->
<!DOCTYPE svg PUBLIC "-//W3C//DTD SVG 1.1//EN" "http://www.w3.org/Graphics/SVG/1.1/DTD/svg11.dtd">
<svg version="1.1" id="Layer_1" xmlns="http://www.w3.org/2000/svg" xmlns:xlink="http://www.w3.org/1999/xlink" x="0px" y="0px"
	 width="74.695px" height="72.344px" viewBox="0 0 74.695 72.344" enable-background="new 0 0 74.695 72.344" xml:space="preserve">
<g>
	<path fill="#81B3D2" d="M29.503,43.844v0.5v18.063v1.469v1.469h16v-2v-0.938V44.344v-0.5v-2.438h-16V43.844z M42.566,62.407H32.441
		V44.344h10.125V62.407z"/>
	<path fill="#81B3D2" d="M72.62,39.44l2.075-2.078l-9.907-9.913V0.47h-0.941H61.85h-7.938l0,0h-2.938v13.162L37.349,0L0,37.363
		l2.077,2.078l7.832-7.832v37.8H5.971v2.938h63.875v-2.938h-5.059V31.608L72.62,39.44z M53.913,3.408h7.938v21.104l-7.938-7.94
		V3.408z M61.85,69.407H12.846V28.671L37.348,4.169L61.85,28.671V69.407z"/>
	<path fill="#81B3D2" d="M29.753,27.21c0,4.28,3.47,7.75,7.75,7.75s7.75-3.47,7.75-7.75c0-4.28-3.47-7.75-7.75-7.75
		S29.753,22.93,29.753,27.21z M37.503,22.241c2.745,0,4.97,2.225,4.97,4.97s-2.225,4.97-4.97,4.97s-4.97-2.225-4.97-4.97
		S34.759,22.241,37.503,22.241z"/>
	<rect x="16.909" y="41.407" fill="#81B3D2" width="3" height="3.938"/>
	<rect x="22.846" y="41.407" fill="#81B3D2" width="3" height="3.938"/>
	<rect x="16.909" y="47.407" fill="#81B3D2" width="3" height="3.938"/>
	<rect x="22.846" y="47.407" fill="#81B3D2" width="3" height="3.938"/>
	<rect x="48.846" y="41.407" fill="#81B3D2" width="3" height="3.938"/>
	<rect x="54.784" y="41.407" fill="#81B3D2" width="3" height="3.938"/>
	<rect x="48.846" y="47.407" fill="#81B3D2" width="3" height="3.938"/>
	<rect x="54.784" y="47.407" fill="#81B3D2" width="3" height="3.938"/>
</g>
</svg>
