<?xml version="1.0" encoding="utf-8"?>
<!-- Generator: Adobe Illustrator 15.0.0, SVG Export Plug-In . SVG Version: 6.00 Build 0)  -->
<!DOCTYPE svg PUBLIC "-//W3C//DTD SVG 1.1//EN" "http://www.w3.org/Graphics/SVG/1.1/DTD/svg11.dtd">
<svg version="1.1" id="Layer_1" xmlns="http://www.w3.org/2000/svg" xmlns:xlink="http://www.w3.org/1999/xlink" x="0px" y="0px"
	 width="187.664px" height="44.918px" viewBox="0 0 187.664 44.918" enable-background="new 0 0 187.664 44.918"
	 xml:space="preserve">
<g>
	<path fill="#81B3D2" d="M27.712,0h7.708l-1.21,44.918H19.685L17.71,26.373l-1.975,18.545H1.146L0,0h7.645l0.637,37.152H9.11
		L13.888,0h7.581l4.905,37.152h0.765L27.712,0z"/>
	<path fill="#81B3D2" d="M59.563,37.152v7.766H38.667V0h20.896v7.7H46.312v10.844h10.575v7.7H46.312v10.908H59.563z"/>
	<path fill="#81B3D2" d="M80.902,37.152v7.766H62.619V0h7.645v37.152H80.902z"/>
	<path fill="#81B3D2" d="M97.146,28.361l7.708-1.797v13.604c0,2.567-2.166,4.749-4.714,4.749H88.672
		c-2.612,0-4.714-2.182-4.714-4.749V4.749C83.958,2.117,86.061,0,88.672,0h11.467c2.548,0,4.714,2.117,4.714,4.749v9.112
		l-7.708,1.796V7.7h-5.543v29.452h5.543L97.146,28.361L97.146,28.361z"/>
	<path fill="#81B3D2" d="M125.619,0c2.549,0,4.715,2.117,4.715,4.749v35.42c0,2.567-2.166,4.749-4.715,4.749h-11.468
		c-2.61,0-4.714-2.182-4.714-4.749V4.749c0-2.631,2.104-4.749,4.714-4.749H125.619z M122.625,7.7h-5.543v29.452h5.543V7.7z"/>
	<path fill="#81B3D2" d="M155.367,0h7.58v44.918h-7.645V22.844l-3.059,11.422h-7.453l-2.994-11.422v22.074h-7.646V0h7.581
		l6.816,21.688L155.367,0z"/>
	<path fill="#81B3D2" d="M187.664,37.152v7.766h-20.896V0h20.896v7.7h-13.252v10.844h10.575v7.7h-10.575v10.908H187.664z"/>
</g>
</svg>
