<?xml version="1.0" encoding="utf-8"?>
<!-- Generator: Adobe Illustrator 15.0.0, SVG Export Plug-In . SVG Version: 6.00 Build 0)  -->
<!DOCTYPE svg PUBLIC "-//W3C//DTD SVG 1.1//EN" "http://www.w3.org/Graphics/SVG/1.1/DTD/svg11.dtd">
<svg version="1.1" id="Layer_1" xmlns="http://www.w3.org/2000/svg" xmlns:xlink="http://www.w3.org/1999/xlink" x="0px" y="0px"
	 width="293.826px" height="79.393px" viewBox="0 0 293.826 79.393" enable-background="new 0 0 293.826 79.393"
	 xml:space="preserve">
<g>
	<path fill="#FFFFFF" d="M33.419,17.06c7.658-2.589,8.242-12.181,0.693-12.181c-2.079,0-4.559,1.459-6.272,4.449l-10.212,17.65
		c-0.474,0.839-0.948,1.532-1.458,2.151c-2.626-3.61-1.86-9.007,1.823-11.378l-1.532-1.934c-7.95,5.069-5.616,19.693,7.659,19.693
		C35.462,35.513,40.713,21.91,33.419,17.06z M24.047,32.595c-2.261,0-4.048-0.511-5.47-1.313c0.657-0.767,1.313-1.715,1.896-2.699
		l6.382-11.05l1.021,0.108C36.774,19.503,33.237,32.595,24.047,32.595z M28.131,15.309l3.063-5.251
		c2.771-4.776,6.309-1.969,4.413,1.604C34.149,14.397,31.997,15.236,28.131,15.309z"/>
	<path fill="#FFFFFF" d="M65.499,29.321c-0.629,2.248,0.573,4.076,3.146,4.076c1.532,0,3.428-0.984,5.251-2.479
		c0.183,1.459,1.35,2.479,3.282,2.479c2.02,0,4.235-1.395,6.394-3.357c-0.42,2.048,0.541,3.357,2.41,3.357
		c2.079,0,4.413-1.896,6.236-3.646c-0.365,2.042,0.839,3.646,3.246,3.646c3.136,0,6.747-3.354,9.883-7.002
		c-0.025-0.05-0.069-0.102-0.101-0.151c2.097-2.438,3.946-5.026,5.268-6.777c-1.496,3.939-0.693,11.014-4.304,11.014
		c-1.276,0-1.787-1.386-1.787-1.386l-2.371,1.24c0,0,0.693,3.063,4.157,3.063c0.365,0,0.693-0.037,1.058-0.072
		c0.037,0,0.073-0.036,0.109-0.036c2.786-0.368,5.55-2.064,7.943-4.225c0.058,2.495,1.995,4.333,5.145,4.333
		c4.303,0,8.57-3.354,11.707-7.002c-0.255-0.511-0.912-1.094-1.422-1.313l-0.255,0.292c-2.735,3.172-6.236,5.688-8.898,5.688
		c-2.334,0-3.72-1.459-1.969-4.521l0.365-0.657c2.443,1.021,7.039,0.547,9.883-4.376l0.547-0.948
		c2.042-3.501,0.073-6.127-3.027-6.127c-3.063,0-5.507,1.605-7.111,4.376l-3.683,6.318c-0.035-0.012-0.071-0.037-0.105-0.046
		l-0.255,0.292c-1.386,1.641-3.063,3.1-4.558,4.121c1.203-3.61,0.948-9.153,3.282-14.004l-2.844-1.532
		c-1.568,2.151-4.996,7.111-8.424,11.123c0.032,0.046,0.074,0.091,0.11,0.138l-0.135,0.154c-2.735,3.172-5.397,5.688-7.075,5.688
		c-0.838,0-1.312-0.583-0.438-2.079l8.096-14.187h-3.793l-6.747,11.779c-2.881,2.626-5.105,4.084-5.835,3.756
		c-0.948-0.401,0-1.823,0.474-2.625l7.403-12.91h-3.793l-6.036,10.446c-0.098-0.061-0.196-0.123-0.288-0.162l-0.255,0.292
		c-2.735,3.172-5.397,5.688-7.075,5.688c-0.838,0-1.312-0.583-0.438-2.079l6.127-10.722h-2.152c0.146-1.604-1.495-3.83-3.975-3.83
		c-2.042,0-4.887,1.605-6.491,4.376l-3.846,6.637c-0.195-0.151-0.394-0.285-0.577-0.364l-0.255,0.292
		c-2.735,3.172-6.236,5.688-8.898,5.688c-2.334,0-3.72-1.459-1.97-4.521l3.902-6.783c2.188-3.756,6.054-3.136,3.792,0.802
		l-0.547,0.948h3.1l0.547-0.948c2.042-3.501,0.073-6.127-3.027-6.127c-3.063,0-5.507,1.605-7.111,4.376l-3.77,6.467
		c-0.118-0.077-0.236-0.146-0.347-0.194l-0.255,0.292c-2.735,3.172-6.236,5.688-8.898,5.688c-2.334,0-3.72-1.459-1.97-4.521
		l0.365-0.657c2.443,1.021,7.039,0.547,9.883-4.376l0.547-0.948c2.042-3.501,0.073-6.127-3.027-6.127
		c-3.063,0-5.507,1.605-7.111,4.376l-3.975,6.819c-2.371,4.048-0.328,7.768,4.157,7.768c3.341,0,6.657-2.023,9.442-4.635
		c-0.098,2.646,1.865,4.635,5.141,4.635C59.77,33.397,62.847,31.656,65.499,29.321z M123.528,19.758
		c2.188-3.756,6.054-3.136,3.792,0.802l-0.547,0.948c-1.823,3.1-4.267,3.027-5.689,2.516L123.528,19.758z M69.337,28.985
		l5.288-9.227c2.042-3.538,6.09-2.626,4.23,0.802l-2.954,5.18c-2.297,3.609-4.559,5.323-6.126,5.323
		C68.936,31.063,68.462,30.48,69.337,28.985z M45.153,19.758c2.188-3.756,6.054-3.136,3.792,0.802l-0.547,0.948
		c-1.823,3.1-4.267,3.027-5.689,2.516L45.153,19.758z"/>
	<path fill="#FFFFFF" d="M173.737,33.397c4.304,0,8.57-3.354,11.705-7.002c-0.254-0.511-0.91-1.094-1.422-1.313l-0.254,0.292
		c-2.736,3.172-6.236,5.688-8.898,5.688c-2.334,0-3.721-1.459-1.971-4.521l0.365-0.657c2.443,1.021,7.038,0.547,9.883-4.376
		l0.547-0.948c2.043-3.501,0.074-6.127-3.026-6.127c-3.062,0-5.506,1.605-7.11,4.376l-3.693,6.336
		c-0.037-0.019-0.077-0.048-0.113-0.063l-0.256,0.292c-2.734,3.172-5.396,5.688-7.074,5.688c-0.839,0-1.313-0.583-0.438-2.079
		l5.47-9.591c1.642-2.881,0.073-4.96-2.042-4.96c-1.643,0-3.393,0.912-5.288,2.881l6.054-10.54h-3.793l-10.697,18.56
		c-0.147-0.104-0.297-0.192-0.434-0.251l-0.256,0.292c-2.735,3.172-5.397,5.688-7.075,5.688c-0.838,0-1.312-0.583-0.438-2.079
		l8.132-14.187h3.101l1.095-1.823h-3.137l3.574-6.2h-3.793l-3.574,6.2h-3.428l-1.094,1.823h3.463L140.199,28
		c-1.604,2.808-0.474,5.396,2.589,5.396c1.885,0,3.941-1.216,5.962-2.975l-1.504,2.61h3.83l5.762-10.029
		c5.835-7.33,8.425-6.382,6.783-3.574L158.698,28c-1.604,2.808-0.475,5.396,2.589,5.396c2.305,0,4.864-1.813,7.304-4.221
		C168.703,31.615,170.633,33.397,173.737,33.397z M176.8,19.758c2.188-3.756,6.055-3.136,3.793,0.802l-0.547,0.948
		c-1.824,3.1-4.268,3.027-5.689,2.516L176.8,19.758z"/>
	<path fill="#FFFFFF" d="M288.756,25.083l-0.256,0.292c-2.733,3.172-5.397,5.688-7.074,5.688c-0.839,0-1.313-0.583-0.438-2.079
		l12.838-22.209h-3.793l-5.58,9.628c-0.656-1.058-1.896-1.97-3.464-1.97c-2.044,0-4.888,1.605-6.492,4.376l-3.711,6.406
		c-0.08-0.047-0.162-0.101-0.237-0.133l-0.256,0.292c-2.734,3.172-5.396,5.688-7.074,5.688c-0.839,0-1.313-0.583-0.438-2.079
		l5.47-9.591c1.642-2.881,0.073-4.96-2.042-4.96c-1.643,0-3.355,0.875-5.252,2.845l1.423-2.479h-3.793l-6.062,10.487
		c-0.123-0.081-0.246-0.153-0.36-0.203l-0.256,0.292c-2.734,3.172-5.397,5.688-7.074,5.688c-0.839,0-1.313-0.583-0.438-2.079
		l6.127-10.722h-2.151c0.146-1.604-1.495-3.83-3.976-3.83c-2.043,0-4.888,1.605-6.492,4.376l-3.666,6.329l-0.206,0.235
		c-2.734,3.172-5.397,5.688-7.074,5.688c-0.839,0-1.313-0.583-0.438-2.079l3.793-6.637c1.313-2.298,0.692-3.646-0.547-5.142
		l-2.115-2.554c-0.547-0.692-0.547-1.458,0.219-2.188l-1.969-2.151c-2.152,1.934-2.334,4.084-0.985,5.835l0.329,0.438
		c-1.678,2.371-3.939,5.58-6.419,8.497c0.073,0.107,0.163,0.215,0.258,0.321c-3.125,3.593-5.781,5.919-8.763,7.191l4.813-8.242
		h-3.792l-0.401,0.657c-2.006,3.537-4.304,6.054-7.258,6.054c-2.589,0-3.062-2.589-0.802-6.455l1.058-1.859
		c0.692,0.108,1.387,0.183,2.151,0.183c13.493,0,20.021-18.052,8.134-18.052c-2.08,0-4.56,1.459-6.272,4.449l-5.908,10.175
		c-2.226-1.167-3.392-3.282-3.392-5.397c0-1.75,0.803-3.501,2.442-4.776l-1.239-2.226c-2.699,1.934-3.901,4.522-3.901,7.075
		c0,3.027,1.714,5.944,4.776,7.549l-1.131,1.97c-2.662,4.595-2.188,9.7,3.174,9.7c1.604,0,2.953-0.474,4.121-1.204l-0.986,1.715
		c-5.141,1.567-8.313,3.646-8.313,6.49c0,3.647,5.58,4.413,8.313-0.255l2.919-4.996c3.938-1.239,7.804-3.938,11.962-8.752
		c-0.059-0.116-0.143-0.237-0.236-0.356c1.684-1.979,3.114-3.889,5.971-7.775l0.51,0.62c0.475,0.62,0.656,1.386,0.219,2.152
		L223.237,28c-1.604,2.808-0.475,5.396,2.59,5.396c1.906,0,3.988-1.244,6.033-3.036c-0.045,1.745,1.148,3.036,3.311,3.036
		c1.531,0,3.428-0.984,5.251-2.479c0.183,1.459,1.351,2.479,3.282,2.479c1.816,0,3.792-1.129,5.742-2.785l-1.398,2.421h3.829
		l5.798-10.103c5.799-7.257,8.389-6.309,6.747-3.501L259.499,28c-1.604,2.808-0.475,5.396,2.589,5.396
		c2.017,0,4.226-1.388,6.381-3.346c-0.202,1.901,1.007,3.346,3.294,3.346c1.531,0,3.428-0.984,5.252-2.479
		c0.183,1.459,1.35,2.479,3.281,2.479c3.137,0,6.747-3.354,9.883-7.002C289.923,25.885,289.267,25.301,288.756,25.083z
		 M210.793,10.933c1.131-1.933,2.371-2.771,3.429-2.771c6.019,0,1.787,12.253-8.133,12.253h-0.766L210.793,10.933z M202.733,39.524
		c-0.801,1.422-2.078,1.204-2.078,0.184c0-0.985,0.875-2.115,3.794-3.246L202.733,39.524z M242.427,25.74
		c-2.298,3.609-4.559,5.323-6.127,5.323c-0.839,0-1.313-0.583-0.438-2.079l5.287-9.227c2.043-3.538,6.091-2.626,4.23,0.802
		L242.427,25.74z M279.128,25.52c-2.298,3.756-4.632,5.543-6.236,5.543c-0.838,0-1.312-0.583-0.438-2.079l5.288-9.227
		c2.042-3.538,6.09-2.626,4.229,0.802h0.036L279.128,25.52z"/>
	<path fill="#FFFFFF" d="M162.051,61.082l-0.255,0.293c-2.734,3.172-5.396,5.688-7.074,5.688c-0.84,0-1.313-0.583-0.438-2.079
		l5.471-9.591c1.642-2.881,0.072-4.96-2.043-4.96c-1.642,0-3.354,0.875-5.251,2.845l1.422-2.479h-3.793l-6.112,10.574
		c-0.165-0.119-0.331-0.226-0.484-0.291l-0.255,0.293c-1.714,1.858-3.83,2.771-5.726,2.808l3.574-6.163
		c2.297-3.976,0.182-7.73-3.392-7.73c-2.917,0-5.178,1.167-7.367,4.96l-1.86,3.245l-1.626,2.781
		c-0.117-0.075-0.234-0.146-0.343-0.192l-0.255,0.293c-3.136,3.608-5.798,5.942-8.789,7.221L127.848,50.8h-3.792l-6.71,11.67
		c-2.917,2.698-5.178,4.193-5.908,3.865c-0.948-0.4,0-1.823,0.474-2.625l7.403-12.91h-3.793l-6.051,10.47
		c-0.113-0.071-0.226-0.142-0.331-0.187l-0.255,0.293c-2.735,3.172-5.397,5.688-7.075,5.688c-0.838,0-1.312-0.583-0.438-2.079
		l5.47-9.591c1.641-2.881,0.073-4.96-2.042-4.96c-1.641,0-3.355,0.875-5.251,2.845l1.422-2.479h-3.793l-6.062,10.486
		c-0.123-0.081-0.246-0.153-0.36-0.203l-0.255,0.293c-2.735,3.172-5.397,5.688-7.075,5.688c-0.838,0-1.312-0.583-0.438-2.079
		l6.127-10.721h-2.152c0.146-1.604-1.495-3.83-3.975-3.83c-2.042,0-4.887,1.605-6.491,4.377l-3.918,6.763
		c-0.259-0.235-0.558-0.417-0.831-0.49l-0.255,0.293c-2.735,3.172-6.09,5.688-9.847,5.688c-2.589,0-4.157-2.589-1.896-6.455
		l1.058-1.859c0.693,0.108,1.386,0.184,2.151,0.184c4.048,0,8.643-2.08,11.634-7.295c1.057-1.859,1.531-3.609,1.531-5.104
		c0-3.429-2.225-5.652-5.032-5.652c-2.079,0-4.559,1.459-6.273,4.449l-5.908,10.175c-2.225-1.167-3.392-3.282-3.392-5.397
		c0-1.75,0.802-3.501,2.443-4.776l-1.24-2.226c-2.699,1.935-3.902,4.521-3.902,7.075c0,3.026,1.714,5.944,4.777,7.549l-1.13,1.971
		c-2.662,4.595-1.094,9.699,4.267,9.699c4.241,0,7.353-1.889,9.968-4.372c-0.826,2.384,0.374,4.372,3.059,4.372
		c1.532,0,3.428-0.984,5.251-2.479c0.183,1.459,1.35,2.479,3.282,2.479c1.816,0,3.792-1.129,5.742-2.783l-1.399,2.42h3.83
		l5.798-10.103c5.798-7.258,8.388-6.31,6.747-3.502L98.09,64c-1.604,2.809-0.474,5.396,2.589,5.396c2.041,0,4.282-1.425,6.464-3.423
		c-0.455,2.086,0.509,3.423,2.398,3.423c1.824,0,3.902-1.531,5.616-3.063l-2.079,3.574c-5.142,1.53-8.351,3.646-8.351,6.49
		c0,3.647,5.58,4.413,8.314-0.255l2.917-4.996c3.171-0.998,6.297-2.965,9.563-6.195c-0.524,5.297,6.533,6.505,10.786,1.126h0.839
		c1.385,0,3.26-0.523,4.952-1.455l-2.549,4.41h3.83l5.798-10.103c5.799-7.258,8.389-6.31,6.747-3.502L151.001,64
		c-1.604,2.809-0.475,5.396,2.59,5.396c3.137,0,6.746-3.354,9.883-7.002C163.218,61.885,162.562,61.301,162.051,61.082z
		 M67.664,46.933c1.13-1.933,2.371-2.771,3.428-2.771c1.422,0,2.079,0.947,2.079,2.334c0,3.538-4.303,9.919-10.211,9.919h-0.766
		L67.664,46.933z M81.019,61.74c-2.297,3.609-4.559,5.323-6.127,5.323c-0.838,0-1.312-0.583-0.438-2.079l5.288-9.227
		c2.042-3.537,6.09-2.625,4.23,0.803L81.019,61.74z M109.87,75.523c-0.803,1.423-2.079,1.204-2.079,0.185
		c0-0.985,0.912-2.115,3.829-3.246L109.87,75.523z M135.397,61.338h-0.183c-1.24,0-2.225,1.021-2.225,2.262
		c0,0.475,0.146,0.911,0.365,1.275l-0.036,0.073c-1.787,3.063-6.127,2.479-3.866-1.459l2.881-4.996l1.823-3.101
		c2.663-4.521,6.309-2.734,4.012,1.204L135.397,61.338z"/>
	<path fill="#FFFFFF" d="M249.958,62.396c-0.219-0.583-0.875-1.167-1.422-1.313l-0.256,0.293c-1.387,1.641-3.063,3.1-4.559,4.12
		c1.203-3.61,0.947-9.153,3.281-14.004l-2.845-1.532c-1.567,2.151-4.996,7.112-8.425,11.123c0.007,0.01,0.016,0.018,0.021,0.025
		c-0.015-0.007-0.031-0.02-0.046-0.025l-0.255,0.293c-2.735,3.172-5.396,5.688-7.075,5.688c-0.839,0-1.642-0.839-1.642-2.553v-1.568
		c2.662,0.328,5.471-1.423,7.258-4.521l1.021-1.75c3.536-6.054-2.226-8.061-6.092-4.521l5.396-9.373h-3.793l-10.815,18.767
		c-0.229-0.195-0.476-0.364-0.694-0.459l-0.256,0.293c-2.734,3.172-6.236,5.688-8.898,5.688c-2.334,0-3.719-1.459-1.969-4.521
		l3.901-6.783c2.188-3.756,6.054-3.136,3.793,0.803l-0.547,0.948h3.101l0.547-0.948c2.041-3.501,0.072-6.127-3.027-6.127
		c-3.063,0-5.508,1.605-7.111,4.377l-3.732,6.404c-0.078-0.047-0.16-0.101-0.234-0.133l-0.256,0.293
		c-2.734,3.172-5.396,5.688-7.074,5.688c-0.839,0-1.313-0.583-0.438-2.079l8.096-14.186h-3.793l-6.746,11.779
		c-2.882,2.625-5.105,4.084-5.835,3.756c-0.948-0.4,0-1.823,0.474-2.625l7.403-12.91h-3.793l-7.365,12.744
		c-0.821,0.746-1.659,1.413-2.45,1.952c1.203-3.61,0.948-9.153,3.282-14.004l-2.845-1.532c-1.568,2.151-10.32,13.75-13.749,17.761
		c0.327,0.474,0.876,0.948,1.423,1.313c2.15-2.48,9.372-11.779,10.723-13.566c-1.496,3.938-0.693,11.014-4.305,11.014
		c-1.275,0-1.787-1.387-1.787-1.387l-2.369,1.24c0,0,0.692,3.063,4.156,3.063c0.365,0,0.693-0.036,1.059-0.072
		c0.035,0,0.072-0.036,0.108-0.036c1.927-0.255,3.841-1.143,5.631-2.379c-0.013,1.542,0.919,2.487,2.509,2.487
		c2.077,0,4.412-1.896,6.234-3.646c-0.363,2.043,0.839,3.646,3.246,3.646c2.355,0,4.979-1.893,7.467-4.38
		c0.034,2.52,1.975,4.38,5.145,4.38c3.078,0,6.137-1.72,8.776-4.031l-2.114,3.668h3.83l4.34-7.55v3.026
		c0,3.245,0.619,4.887,3.683,4.887c3.137,0,6.747-3.354,9.884-7.002c-0.006-0.011-0.017-0.021-0.021-0.034
		c0.016,0.013,0.031,0.023,0.047,0.034c2.152-2.479,4.049-5.142,5.396-6.929c-1.494,3.938-0.691,11.014-4.303,11.014
		c-1.275,0-1.787-1.387-1.787-1.387l-2.37,1.24c0,0,0.692,3.063,4.157,3.063c0.364,0,0.691-0.036,1.059-0.072
		c0.035,0,0.071-0.036,0.108-0.036C243.285,68.777,247.114,65.714,249.958,62.396z M224.771,59.406l1.094-1.896
		c4.377-6.091,7.367-4.413,6.018-2.115l-1.822,3.137C228.927,60.499,225.608,61.885,224.771,59.406z"/>
	<path fill="#FFFFFF" d="M249.812,64.984c-1.24,0-2.188,0.984-2.188,2.226s0.948,2.188,2.188,2.188c1.239,0,2.225-0.947,2.225-2.188
		S251.051,64.984,249.812,64.984z"/>
	<polygon fill="#FFFFFF" points="249.994,63.49 253.823,63.49 265.711,42.775 261.919,42.775 	"/>
</g>
<g>
	<path fill="#FFFFFF" d="M5.75,6.9c0,0.293-0.057,0.587-0.169,0.879c-0.113,0.295-0.282,0.56-0.507,0.797
		C4.848,8.812,4.572,9.003,4.245,9.15C3.918,9.297,3.551,9.37,3.145,9.37c-0.451,0-0.885-0.084-1.302-0.253
		c-0.417-0.17-0.772-0.412-1.065-0.729C0.529,8.096,0.338,7.746,0.203,7.34C0.067,6.934,0,6.506,0,6.055
		c0-0.855,0.152-1.646,0.457-2.368c0.304-0.722,0.738-1.363,1.302-1.928c0.248-0.248,0.529-0.479,0.845-0.694
		C2.92,0.852,3.219,0.671,3.501,0.524C3.782,0.378,4.025,0.26,4.228,0.169C4.431,0.079,4.555,0.023,4.6,0l1.353,1.996
		c-0.249,0.09-0.524,0.209-0.829,0.354C4.82,2.498,4.532,2.678,4.262,2.892C3.991,3.106,3.766,3.36,3.585,3.653
		c-0.18,0.293-0.282,0.633-0.304,1.016c0.654,0,1.229,0.191,1.725,0.575C5.502,5.626,5.75,6.179,5.75,6.9z M13.616,6.9
		c0,0.293-0.057,0.587-0.169,0.879c-0.113,0.294-0.282,0.559-0.507,0.796c-0.226,0.236-0.502,0.429-0.829,0.574
		c-0.328,0.147-0.694,0.221-1.1,0.221c-0.451,0-0.885-0.084-1.302-0.253S8.937,8.705,8.644,8.389
		C8.396,8.096,8.204,7.746,8.069,7.34C7.934,6.934,7.866,6.506,7.866,6.055c0-0.855,0.152-1.646,0.457-2.368
		c0.304-0.722,0.738-1.363,1.302-1.928c0.248-0.248,0.529-0.479,0.846-0.693c0.315-0.214,0.614-0.394,0.896-0.541
		c0.282-0.146,0.524-0.265,0.728-0.354c0.203-0.09,0.327-0.146,0.372-0.169l1.353,1.996c-0.249,0.09-0.524,0.209-0.829,0.354
		c-0.305,0.147-0.592,0.327-0.863,0.541s-0.496,0.468-0.676,0.761c-0.181,0.294-0.282,0.632-0.305,1.016
		c0.654,0,1.229,0.191,1.725,0.575C13.368,5.626,13.616,6.179,13.616,6.9z"/>
</g>
<g>
	<path fill="#FFFFFF" d="M278.776,65.842c0-0.294,0.057-0.588,0.168-0.88c0.113-0.294,0.283-0.559,0.508-0.795
		c0.227-0.237,0.502-0.429,0.828-0.575c0.328-0.146,0.693-0.22,1.1-0.22c0.451,0,0.887,0.085,1.303,0.253
		c0.418,0.17,0.772,0.412,1.065,0.729c0.249,0.293,0.44,0.644,0.575,1.048c0.135,0.406,0.203,0.834,0.203,1.286
		c0,0.855-0.152,1.646-0.457,2.367s-0.738,1.364-1.303,1.928c-0.248,0.248-0.529,0.479-0.847,0.693
		c-0.313,0.215-0.612,0.395-0.896,0.541c-0.281,0.146-0.523,0.266-0.728,0.355c-0.204,0.089-0.325,0.146-0.372,0.17l-1.353-1.996
		c0.247-0.09,0.522-0.209,0.827-0.355c0.306-0.146,0.593-0.327,0.863-0.541c0.271-0.215,0.496-0.469,0.676-0.762
		c0.182-0.293,0.283-0.631,0.306-1.014c-0.654,0-1.229-0.192-1.726-0.576C279.024,67.115,278.776,66.562,278.776,65.842z
		 M270.909,65.842c0-0.294,0.057-0.588,0.17-0.88c0.113-0.294,0.281-0.559,0.507-0.795c0.226-0.237,0.503-0.429,0.829-0.575
		c0.327-0.146,0.693-0.22,1.1-0.22c0.451,0,0.885,0.085,1.303,0.253c0.416,0.17,0.771,0.412,1.064,0.729
		c0.248,0.293,0.439,0.644,0.575,1.048c0.136,0.406,0.202,0.834,0.202,1.286c0,0.855-0.151,1.646-0.456,2.367
		c-0.304,0.722-0.738,1.364-1.302,1.928c-0.248,0.248-0.529,0.479-0.846,0.693c-0.318,0.214-0.615,0.395-0.896,0.541
		s-0.523,0.266-0.729,0.355c-0.203,0.089-0.326,0.146-0.371,0.17l-1.354-1.996c0.249-0.09,0.524-0.209,0.829-0.355
		c0.305-0.146,0.593-0.327,0.861-0.541c0.271-0.215,0.496-0.469,0.678-0.762c0.181-0.293,0.281-0.631,0.305-1.014
		c-0.652,0-1.229-0.192-1.727-0.576C271.158,67.115,270.909,66.562,270.909,65.842z"/>
</g>
</svg>
