<?xml version="1.0" encoding="utf-8"?>
<!-- Generator: Adobe Illustrator 15.0.0, SVG Export Plug-In . SVG Version: 6.00 Build 0)  -->
<!DOCTYPE svg PUBLIC "-//W3C//DTD SVG 1.1//EN" "http://www.w3.org/Graphics/SVG/1.1/DTD/svg11.dtd">
<svg version="1.1" id="Layer_1" xmlns="http://www.w3.org/2000/svg" xmlns:xlink="http://www.w3.org/1999/xlink" x="0px" y="0px"
	 width="255.917px" height="28.91px" viewBox="0 0 255.917 28.91" enable-background="new 0 0 255.917 28.91" xml:space="preserve">
<g>
	<path fill="#766357" d="M63.999,14.454l-0.202,0.23c-1.353,1.468-3.023,2.188-4.521,2.216l2.822-4.865
		c1.814-3.138,0.144-6.104-2.678-6.104c-2.304,0-4.089,0.921-5.816,3.916l-1.468,2.562l-1.227,2.098l-0.154,0.177
		c-2.159,2.505-4.261,4.491-5.586,4.491c-0.662,0-1.037-0.461-0.345-1.641l6.421-11.201h2.447l0.864-1.44H52.08L54.902,0h-2.995
		l-2.822,4.895h-2.707l-0.864,1.44h2.735l-6.018,10.423c-1.267,2.217-0.374,4.262,2.044,4.262c1.739,0,3.662-1.309,5.511-3.084
		c-0.005,3.816,5.298,4.562,8.539,0.463h0.662c1.785,0,4.607-1.094,6.133-2.907C64.92,15.087,64.402,14.627,63.999,14.454z
		 M57.607,14.656h-0.144c-0.979,0-1.756,0.806-1.756,1.786c0,0.373,0.115,0.72,0.288,1.009l-0.029,0.057
		c-1.411,2.419-4.837,1.958-3.052-1.151l2.274-3.944l1.44-2.447c2.102-3.57,4.981-2.16,3.167,0.95L57.607,14.656z"/>
	<path fill="#766357" d="M105.455,14.454l-0.202,0.23c-2.16,2.505-4.924,4.491-7.025,4.491c-1.843,0-2.937-1.151-1.555-3.569
		l0.288-0.52c1.929,0.807,5.557,0.432,7.803-3.455l0.432-0.749c1.612-2.764,0.058-4.837-2.39-4.837
		c-2.419,0-4.348,1.267-5.615,3.455l-2.906,4.985l-0.173,0.198c-2.16,2.504-4.261,4.491-5.586,4.491
		c-0.662,0-1.037-0.461-0.346-1.641l4.32-7.571c1.295-2.275,0.058-3.916-1.613-3.916c-1.295,0-2.678,0.72-4.175,2.274L91.492,0
		h-2.995l-8.354,14.492l-0.168,0.192c-2.159,2.505-4.261,4.491-5.586,4.491c-0.662,0-1.037-0.461-0.345-1.641l6.421-11.201h2.447
		l0.864-1.44H81.3L84.123,0h-2.995l-2.822,4.895H75.6l-0.864,1.44h2.735l-6.018,10.423c-1.267,2.217-0.374,4.262,2.044,4.262
		c1.213,0,2.517-0.639,3.822-1.627l-0.771,1.338h3.023l4.549-7.917c4.607-5.788,6.651-5.039,5.355-2.822l-3.887,6.767
		c-1.267,2.218-0.374,4.263,2.044,4.263c1.782,0,3.757-1.375,5.647-3.217c0.144,1.864,1.653,3.217,4.054,3.217
		c3.397,0,6.766-2.649,9.243-5.529C106.376,15.087,105.858,14.627,105.455,14.454z M99.754,10.25
		c1.728-2.965,4.78-2.476,2.995,0.634l-0.432,0.749c-1.439,2.447-3.369,2.39-4.492,1.987L99.754,10.25z"/>
	<path fill="#766357" d="M214.625,14.454l-0.201,0.23c-1.096,1.294-2.42,2.447-3.601,3.253c0.95-2.851,0.749-7.228,2.593-11.057
		l-2.246-1.209c-1.238,1.699-3.944,5.615-6.651,8.782l0.001,0.001l-0.201,0.229c-2.158,2.505-4.261,4.491-5.586,4.491
		c-0.662,0-1.036-0.461-0.345-1.641l6.392-11.201h-2.994l-5.326,9.3c-2.274,2.072-4.031,3.225-4.606,2.965
		c-0.749-0.315,0-1.438,0.374-2.072l5.845-10.192h-2.993l-4.695,8.124l-0.197,0.227c-1.354,1.468-3.023,2.188-4.521,2.216
		l2.821-4.865c1.813-3.138,0.146-6.104-2.678-6.104c-2.304,0-4.089,0.921-5.815,3.916l-1.469,2.562l-1.227,2.097l-0.154,0.178
		c-2.159,2.505-4.924,4.491-7.025,4.491c-1.843,0-2.938-1.151-1.555-3.569l0.288-0.52c1.929,0.807,5.558,0.432,7.803-3.455
		l0.433-0.749c1.611-2.764,0.058-4.837-2.391-4.837c-2.419,0-4.348,1.267-5.615,3.455l-2.904,4.984l-0.174,0.199
		c-2.477,2.851-4.606,4.692-6.969,5.7l6.709-11.459h-1.757c0-1.238-1.267-2.879-3.138-2.879c-1.612,0-3.858,1.267-5.126,3.455
		l-2.871,4.957c-0.002-0.001-0.005-0.003-0.007-0.004l-0.201,0.23c-2.159,2.504-4.262,4.491-5.586,4.491
		c-0.662,0-1.036-0.461-0.346-1.641l2.994-5.241c1.036-1.814,0.547-2.879-0.433-4.06l-1.67-2.016
		c-0.433-0.547-0.433-1.152,0.173-1.728l-1.555-1.699c-1.699,1.526-1.844,3.225-0.777,4.607l0.26,0.346
		c-1.324,1.872-3.109,4.405-5.068,6.709l0.002,0.001l-0.2,0.229c-1.354,1.467-3.022,2.188-4.521,2.217l2.82-4.866
		c1.814-3.138,0.145-6.104-2.678-6.104c-2.303,0-4.088,0.921-5.814,3.916l-1.47,2.562l-1.228,2.101l-0.152,0.174
		c-2.477,2.85-4.607,4.692-6.968,5.7l6.709-11.459h-1.756c0-1.238-1.267-2.879-3.139-2.879c-1.612,0-3.858,1.267-5.125,3.455
		l-4.204,7.256c-1.267,2.217-0.374,4.262,2.044,4.262c0.835,0,1.843-0.375,2.851-1.008l-0.835,1.41
		c-4.031,1.238-6.565,2.879-6.565,5.125c0,2.88,4.405,3.484,6.565-0.201l2.275-3.945c2.396-0.746,4.743-2.155,7.18-4.481
		c-0.022,3.832,5.293,4.585,8.539,0.479h0.662c1.785,0,4.607-1.094,6.133-2.908l0,0c1.438-1.67,2.562-3.167,4.951-6.419l0.402,0.489
		c0.374,0.49,0.52,1.094,0.174,1.699l-3.168,5.5c-1.268,2.218-0.375,4.263,2.045,4.263c1.518,0,3.176-0.998,4.801-2.431
		c-0.049,1.392,0.88,2.431,2.598,2.431c0.835,0,1.843-0.375,2.852-1.009l-0.836,1.41c-4.031,1.238-6.563,2.879-6.563,5.125
		c0,2.88,4.405,3.483,6.563-0.201l2.274-3.944c2.44-0.762,4.83-2.215,7.315-4.617c0.133,1.875,1.646,3.236,4.057,3.236
		c2.438,0,4.859-1.367,6.947-3.201c-0.117,3.92,5.267,4.721,8.541,0.58h0.662c0.938,0,2.158-0.309,3.33-0.856
		c-0.806,2.081-0.063,3.478,1.649,3.478c1.642,0,3.483-1.498,4.923-2.879c-0.288,1.611,0.662,2.879,2.563,2.879
		c2.477,0,5.326-2.648,7.804-5.529h-0.001c1.697-1.958,3.195-4.059,4.261-5.469c-1.181,3.109-0.548,8.695-3.397,8.695
		c-1.008,0-1.41-1.094-1.41-1.094l-1.872,0.979c0,0,0.547,2.42,3.282,2.42c0.287,0,0.548-0.029,0.834-0.06
		c0.029,0,0.059-0.028,0.088-0.028c3.052-0.402,6.074-2.82,8.32-5.441C215.574,15.029,215.055,14.569,214.625,14.454z
		 M171.641,10.25c1.728-2.965,4.778-2.476,2.994,0.634l-0.433,0.749c-1.439,2.447-3.369,2.39-4.492,1.987L171.641,10.25z
		 M114.465,25.855c-0.634,1.123-1.641,0.951-1.641,0.145c0-0.777,0.72-1.67,2.994-2.563L114.465,25.855z M115.847,19.176
		c-0.662,0-1.037-0.461-0.345-1.641l4.175-7.285c1.612-2.793,4.809-2.073,3.34,0.634l-2.274,3.973
		C118.928,17.766,117.114,19.176,115.847,19.176z M134.244,14.656h-0.145c-0.979,0-1.756,0.806-1.756,1.786
		c0,0.373,0.115,0.72,0.287,1.009l-0.028,0.057c-1.41,2.419-4.837,1.958-3.052-1.151l2.273-3.944l1.439-2.447
		c2.104-3.57,4.98-2.16,3.168,0.95L134.244,14.656z M153.071,25.855c-0.634,1.123-1.642,0.951-1.642,0.145
		c0-0.777,0.72-1.67,2.994-2.563L153.071,25.855z M154.453,19.176c-0.662,0-1.035-0.461-0.346-1.641l4.176-7.285
		c1.612-2.793,4.809-2.073,3.34,0.634l-2.274,3.973C157.535,17.766,155.719,19.176,154.453,19.176z M183.992,14.656h-0.145
		c-0.979,0-1.756,0.806-1.756,1.786c0,0.373,0.115,0.72,0.287,1.009l-0.028,0.057c-1.41,2.419-4.837,1.958-3.052-1.151l2.273-3.944
		l1.439-2.447c2.103-3.57,4.98-2.16,3.168,0.95L183.992,14.656z"/>
</g>
<rect y="11.275" fill="#766357" width="28.917" height="1.958"/>
<rect x="227" y="11.275" fill="#766357" width="28.918" height="1.958"/>
</svg>
