<?xml version="1.0" encoding="utf-8"?>
<!-- Generator: Adobe Illustrator 15.0.0, SVG Export Plug-In . SVG Version: 6.00 Build 0)  -->
<!DOCTYPE svg PUBLIC "-//W3C//DTD SVG 1.1//EN" "http://www.w3.org/Graphics/SVG/1.1/DTD/svg11.dtd">
<svg version="1.1" id="Layer_1" xmlns="http://www.w3.org/2000/svg" xmlns:xlink="http://www.w3.org/1999/xlink" x="0px" y="0px"
	 width="280px" height="48px" viewBox="0 0 280 48" enable-background="new 0 0 280 48" xml:space="preserve">
<g>
	<path fill="#FFFFFF" d="M28.115,12.874c-2.169-1.809-4.942-3.013-7.835-3.013c-2.169,0-5.062,1.265-5.062,3.797
		c0,2.651,3.194,3.676,5.243,4.338l3.014,0.905c6.328,1.868,11.209,5.062,11.209,12.415c0,4.52-1.084,9.161-4.701,12.235
		c-3.556,3.012-8.317,4.277-12.896,4.277c-5.726,0-11.332-1.929-15.972-5.184l5.063-9.521c2.953,2.592,6.448,4.699,10.486,4.699
		c2.772,0,5.726-1.386,5.726-4.58c0-3.315-4.641-4.46-7.172-5.183C7.807,25.951,2.924,24.023,2.924,15.223
		c0-9.221,6.568-15.247,15.67-15.247c4.58,0,10.184,1.447,14.222,3.736L28.115,12.874z"/>
	<path fill="#FFFFFF" d="M56.875,11.186v7.594h13.319v10.005H56.875v7.834h14.042v10.006H45.062V1.181h25.855v10.005H56.875z"/>
	<path fill="#FFFFFF" d="M79.695,1.181h16.754c12.657,0,23.083,9.945,23.083,22.722c0,12.775-10.487,22.721-23.083,22.721H79.695
		V1.181z M91.508,36.619h2.652c7.051,0,13.078-3.857,13.078-12.716c0-8.136-5.363-12.716-12.958-12.716h-2.772V36.619z"/>
	<path fill="#FFFFFF" d="M175.3,23.059c0,14.706-10.547,25.072-25.133,25.072c-14.585,0-25.132-10.366-25.132-25.072
		c0-13.74,12.053-23.383,25.132-23.383C163.245-0.324,175.3,9.319,175.3,23.059z M137.33,23.119c0,7.835,5.787,13.56,12.837,13.56
		s12.837-5.725,12.837-13.56c0-6.268-5.784-11.993-12.837-11.993S137.33,16.853,137.33,23.119z"/>
	<path fill="#FFFFFF" d="M181.593,1.181h11.813l21.637,27.785h0.121V1.181h11.812v45.444h-11.812l-21.637-27.844h-0.121v27.844
		h-11.813V1.181z"/>
	<path fill="#FFFFFF" d="M248.447,38.728l-3.134,7.897H232.78l17.477-45.444h12.897l17.115,45.444h-12.598l-2.952-7.897H248.447z
		 M256.703,15.224h-0.118l-4.881,14.464h9.822L256.703,15.224z"/>
</g>
</svg>
